<svg width="49" height="53" viewBox="0 0 49 53" fill="none" xmlns="http://www.w3.org/2000/svg">
<mask id="mask0_1245_35567" style="mask-type:alpha" maskUnits="userSpaceOnUse" x="0" y="0" width="49" height="53">
<path d="M19.9473 1.41118C22.7643 -0.215184 26.2349 -0.215187 29.0519 1.41118L43.9509 10.0131C46.7678 11.6395 48.5031 14.6451 48.5031 17.8979V35.1017C48.5031 38.3545 46.7678 41.3601 43.9509 42.9865L29.0519 51.5884C26.2349 53.2148 22.7643 53.2148 19.9473 51.5884L5.04836 42.9865C2.23141 41.3601 0.496094 38.3545 0.496094 35.1017V17.8979C0.496094 14.6451 2.23141 11.6395 5.04836 10.0131L19.9473 1.41118Z" fill="#C4C4C4"/>
</mask>
<g mask="url(#mask0_1245_35567)">
<rect width="30.3817" height="30.3817" transform="matrix(0.866025 0.5 -0.866025 0.5 24.5 -1.66895)" fill="#EF6518"/>
<rect width="27.9554" height="27.9554" transform="matrix(0.866025 0.5 -2.20305e-08 1 0.289062 13.7417)" fill="#ED6D26"/>
<rect width="27.9554" height="27.9554" transform="matrix(0.866025 -0.5 2.20305e-08 1 24.5 27.7231)" fill="#E86217"/>
</g>
</svg>
